<svg width="512" height="512" viewBox="0 0 512 512" fill="none" xmlns="http://www.w3.org/2000/svg">
  <rect width="512" height="512" fill="#1F2937"/>
  <path d="M256 128C214.1 128 180 162.1 180 204C180 245.9 214.1 280 256 280C297.9 280 332 245.9 332 204C332 162.1 297.9 128 256 128ZM256 252C229.5 252 208 230.5 208 204C208 177.5 229.5 156 256 156C282.5 156 304 177.5 304 204C304 230.5 282.5 252 256 252Z" fill="#9CA3AF"/>
  <path d="M256 288C203.4 288 160 331.4 160 384H184C184 344.3 216.3 312 256 312C295.7 312 328 344.3 328 384H352C352 331.4 308.6 288 256 288Z" fill="#9CA3AF"/>
</svg> 